<svg width="16" height="16" viewBox="0 0 16 16" fill="none" xmlns="http://www.w3.org/2000/svg">
<path d="M9.31898 8L15.9518 0.321472C16.063 0.193865 15.9695 0 15.7977 0H13.7813C13.6625 0 13.5488 0.0515337 13.4705 0.139877L8 6.47362L2.52951 0.139877C2.45371 0.0515337 2.34 0 2.21872 0H0.202345C0.030524 0 -0.0629672 0.193865 0.0482113 0.321472L6.68102 8L0.0482113 15.6785C0.0233063 15.707 0.00732877 15.7418 0.00217506 15.7788C-0.00297865 15.8158 0.0029079 15.8534 0.0191365 15.8873C0.035365 15.9211 0.0612539 15.9497 0.093729 15.9697C0.126204 15.9897 0.163901 16.0002 0.202345 16H2.21872C2.33748 16 2.45118 15.9485 2.52951 15.8601L8 9.52638L13.4705 15.8601C13.5463 15.9485 13.66 16 13.7813 16H15.7977C15.9695 16 16.063 15.8061 15.9518 15.6785L9.31898 8Z" fill="#9F9F9F"/>
</svg>
