<svg width="33" height="33" viewBox="0 0 33 33" fill="none" xmlns="http://www.w3.org/2000/svg">
<g clip-path="url(#clip0_1_5)">
<path fill-rule="evenodd" clip-rule="evenodd" d="M4.5375 0.619C2.0625 0.825 0 2.99 0 5.362V27.638C0 30.009 2.0625 32.175 4.5375 32.381C8.45625 32.794 12.4781 33 16.5 33C20.5219 33 24.5438 32.794 28.4625 32.381C30.9375 32.175 33 30.009 33 27.637V5.363C33 2.991 30.9375 0.825 28.5656 0.62C24.5622 0.208147 20.5393 0.00119306 16.5134 0C12.5039 0 8.50781 0.206 4.5375 0.619Z" fill="url(#paint0_linear_1_5)"/>
<path fill-rule="evenodd" clip-rule="evenodd" d="M23.0825 8.327C22.8939 8.25031 22.686 8.23028 22.4856 8.26951C22.2852 8.30873 22.1015 8.4054 21.9584 8.547L16.5 13.912L11.0416 8.547C10.8985 8.4054 10.7148 8.30873 10.5144 8.26951C10.314 8.23028 10.1061 8.25031 9.91754 8.327C9.72816 8.40513 9.56677 8.53572 9.45359 8.7024C9.3404 8.86907 9.28046 9.06443 9.28126 9.264V21.427C9.28126 21.987 9.74326 22.441 10.3125 22.441C10.8818 22.441 11.3438 21.987 11.3438 21.427V11.711L15.7709 16.062C15.866 16.156 15.9794 16.2307 16.1046 16.2817C16.2298 16.3327 16.3642 16.359 16.5 16.359C16.6358 16.359 16.7702 16.3327 16.8954 16.2817C17.0206 16.2307 17.134 16.156 17.2291 16.062L21.6563 11.711V21.427C21.6563 21.987 22.1183 22.441 22.6875 22.441C23.2568 22.441 23.7188 21.987 23.7188 21.427V9.264C23.7188 8.854 23.4671 8.484 23.0825 8.327Z" fill="#BE5B04"/>
<path fill-rule="evenodd" clip-rule="evenodd" d="M18.4903 17.828L16.5041 19.815L14.5179 17.828C14.4253 17.7342 14.3141 17.6595 14.1909 17.6085C14.0677 17.5575 13.9352 17.5312 13.8012 17.5312C13.6673 17.5312 13.5347 17.5575 13.4115 17.6085C13.2884 17.6595 13.1771 17.7342 13.0845 17.828C12.8938 18.0209 12.7873 18.2778 12.7873 18.545C12.7873 18.8122 12.8938 19.0691 13.0845 19.262L15.4904 21.667V24.964C15.4904 25.524 15.9442 25.978 16.5041 25.978C17.0641 25.978 17.5178 25.524 17.5178 24.964V21.668L19.9237 19.262C20.1145 19.0691 20.221 18.8122 20.221 18.545C20.221 18.2778 20.1145 18.0209 19.9237 17.828C19.8311 17.7342 19.7199 17.6595 19.5967 17.6085C19.4735 17.5575 19.341 17.5312 19.207 17.5312C19.0731 17.5312 18.9405 17.5575 18.8173 17.6085C18.6942 17.6595 18.5829 17.7342 18.4903 17.828V17.828Z" fill="#BE5B04"/>
</g>
<defs>
<linearGradient id="paint0_linear_1_5" x1="0" y1="0" x2="0" y2="33" gradientUnits="userSpaceOnUse">
<stop stop-color="#F9D860"/>
<stop offset="1" stop-color="#FB9E49"/>
</linearGradient>
<clipPath id="clip0_1_5">
<rect width="33" height="33" fill="white"/>
</clipPath>
</defs>
</svg>
