<svg width="80" height="12" viewBox="0 0 80 12" fill="none" xmlns="http://www.w3.org/2000/svg">
<path fill-rule="evenodd" clip-rule="evenodd" d="M47.564 8.862C45.887 8.862 44.524 7.456 44.524 5.726C44.524 3.998 45.887 2.591 47.564 2.591C49.241 2.591 50.604 3.998 50.604 5.726C50.604 7.456 49.241 8.862 47.564 8.862ZM47.564 0.5C44.769 0.5 42.496 2.845 42.496 5.726C42.496 8.608 44.769 10.953 47.564 10.953C50.358 10.953 52.632 8.608 52.632 5.727C52.632 2.844 50.36 0.5 47.564 0.5ZM62.43 8.862C60.754 8.862 59.39 7.456 59.39 5.726C59.39 3.998 60.754 2.591 62.43 2.591C64.107 2.591 65.471 3.998 65.471 5.726C65.471 7.456 64.107 8.862 62.431 8.862H62.43ZM62.43 0.5C59.636 0.5 57.362 2.845 57.362 5.726C57.362 8.608 59.636 10.953 62.43 10.953C65.225 10.953 67.499 8.608 67.499 5.727C67.499 2.844 65.225 0.5 62.43 0.5ZM10.11 0.963C9.92471 0.883714 9.71963 0.862871 9.52218 0.903256C9.32472 0.943641 9.14429 1.04333 9.00501 1.189L5.66701 4.631L2.33001 1.19C2.19076 1.04428 2.01039 0.944488 1.81296 0.90393C1.61553 0.863372 1.41042 0.883978 1.22501 0.963C1.03778 1.04508 0.878708 1.18022 0.767453 1.35173C0.656198 1.52323 0.597636 1.72358 0.599007 1.928V9.594C0.599007 10.171 1.05301 10.639 1.61301 10.639C2.17301 10.639 2.62701 10.171 2.62701 9.594V4.452L4.95001 6.849C5.04261 6.94571 5.15383 7.02267 5.27697 7.07525C5.40011 7.12782 5.53261 7.15493 5.66651 7.15493C5.8004 7.15493 5.93291 7.12782 6.05605 7.07525C6.17919 7.02267 6.29041 6.94571 6.38301 6.849L8.70701 4.452V9.594C8.70701 10.171 9.16101 10.639 9.72101 10.639C10.281 10.639 10.735 10.171 10.735 9.594V1.928C10.735 1.505 10.488 1.124 10.109 0.963H10.11ZM34.894 8.513H32.022V6.771H34.894C35.344 6.771 35.739 7.178 35.739 7.642C35.739 8.106 35.344 8.513 34.894 8.513ZM32.022 2.938H33.88C34.33 2.938 34.725 3.345 34.725 3.809C34.725 4.273 34.33 4.68 33.88 4.68H32.022V2.938V2.938ZM36.438 5.149C36.638 4.746 36.752 4.292 36.752 3.809C36.752 2.176 35.464 0.848 33.88 0.848H31.008C30.448 0.848 29.995 1.316 29.995 1.893V9.558C29.995 10.136 30.448 10.604 31.008 10.604H34.894C36.477 10.604 37.766 9.275 37.766 7.642C37.766 6.595 37.236 5.676 36.438 5.149ZM22.858 1.502L19.858 4.595L16.858 1.502C16.7654 1.40529 16.6542 1.32833 16.531 1.27575C16.4079 1.22318 16.2754 1.19607 16.1415 1.19607C16.0076 1.19607 15.8751 1.22318 15.752 1.27575C15.6288 1.32833 15.5176 1.40529 15.425 1.502C15.2344 1.70083 15.128 1.96559 15.128 2.241C15.128 2.51641 15.2344 2.78117 15.425 2.98L18.845 6.506V9.558C18.845 10.135 19.298 10.603 19.858 10.603C20.418 10.603 20.872 10.135 20.872 9.558V6.506L24.292 2.98C24.4826 2.78117 24.589 2.51641 24.589 2.241C24.589 1.96559 24.4826 1.70083 24.292 1.502C24.1995 1.40501 24.0882 1.3278 23.965 1.27505C23.8417 1.2223 23.7091 1.1951 23.575 1.1951C23.441 1.1951 23.3083 1.2223 23.185 1.27505C23.0618 1.3278 22.9505 1.40501 22.858 1.502V1.502ZM76.703 5.726L79.703 2.632C79.8936 2.43317 80 2.16841 80 1.893C80 1.61759 79.8936 1.35283 79.703 1.154C79.6105 1.05716 79.4993 0.980089 79.3761 0.927431C79.253 0.874772 79.1204 0.847623 78.9865 0.847623C78.8526 0.847623 78.72 0.874772 78.5969 0.927431C78.4737 0.980089 78.3625 1.05716 78.27 1.154L74.594 4.944V1.894C74.594 1.317 74.14 0.849 73.581 0.849C73.021 0.849 72.567 1.317 72.567 1.894V9.559C72.567 10.137 73.021 10.605 73.581 10.605C74.141 10.605 74.594 10.137 74.594 9.559V6.507L78.27 10.297C78.3628 10.3935 78.474 10.4702 78.5971 10.5226C78.7203 10.575 78.8527 10.602 78.9865 10.602C79.1203 10.602 79.2528 10.575 79.3759 10.5226C79.499 10.4702 79.6103 10.3935 79.703 10.297C79.8936 10.0982 80 9.83341 80 9.558C80 9.28259 79.8936 9.01783 79.703 8.819L76.703 5.726V5.726Z" fill="#383434"/>
</svg>
